<mxfile host="app.diagrams.net" modified="2024-05-19T18:04:09.181Z" agent="Mozilla/5.0 (Windows NT 10.0; Win64; x64) AppleWebKit/537.36 (KHTML, like Gecko) Chrome/123.0.0.0 Safari/537.36 OPR/109.0.0.0 (Edition std-1)" etag="gs2MSOMgyNtTy7L2TPf-" version="24.4.4" type="google">
  <diagram name="Page-1" id="2YBvvXClWsGukQMizWep">
    <mxGraphModel grid="1" page="1" gridSize="10" guides="1" tooltips="1" connect="1" arrows="1" fold="1" pageScale="1" pageWidth="850" pageHeight="1100" math="0" shadow="0">
      <root>
        <mxCell id="0" />
        <mxCell id="1" parent="0" />
        <mxCell id="aM9ryv3xv72pqoxQDRHE-1" value="Administrador" style="shape=umlLifeline;perimeter=lifelinePerimeter;whiteSpace=wrap;html=1;container=0;dropTarget=0;collapsible=0;recursiveResize=0;outlineConnect=0;portConstraint=eastwest;newEdgeStyle={&quot;edgeStyle&quot;:&quot;elbowEdgeStyle&quot;,&quot;elbow&quot;:&quot;vertical&quot;,&quot;curved&quot;:0,&quot;rounded&quot;:0};" vertex="1" parent="1">
          <mxGeometry x="40" y="40" width="100" height="360" as="geometry" />
        </mxCell>
        <mxCell id="aM9ryv3xv72pqoxQDRHE-2" value="" style="html=1;points=[];perimeter=orthogonalPerimeter;outlineConnect=0;targetShapes=umlLifeline;portConstraint=eastwest;newEdgeStyle={&quot;edgeStyle&quot;:&quot;elbowEdgeStyle&quot;,&quot;elbow&quot;:&quot;vertical&quot;,&quot;curved&quot;:0,&quot;rounded&quot;:0};" vertex="1" parent="aM9ryv3xv72pqoxQDRHE-1">
          <mxGeometry x="45" y="70" width="10" height="290" as="geometry" />
        </mxCell>
        <mxCell id="aM9ryv3xv72pqoxQDRHE-4" value="" style="html=1;points=[];perimeter=orthogonalPerimeter;outlineConnect=0;targetShapes=umlLifeline;portConstraint=eastwest;newEdgeStyle={&quot;edgeStyle&quot;:&quot;elbowEdgeStyle&quot;,&quot;elbow&quot;:&quot;vertical&quot;,&quot;curved&quot;:0,&quot;rounded&quot;:0};" vertex="1" parent="aM9ryv3xv72pqoxQDRHE-1">
          <mxGeometry x="50" y="120" height="80" as="geometry" />
        </mxCell>
        <mxCell id="aM9ryv3xv72pqoxQDRHE-5" value="GerenteProducao" style="shape=umlLifeline;perimeter=lifelinePerimeter;whiteSpace=wrap;html=1;container=0;dropTarget=0;collapsible=0;recursiveResize=0;outlineConnect=0;portConstraint=eastwest;newEdgeStyle={&quot;edgeStyle&quot;:&quot;elbowEdgeStyle&quot;,&quot;elbow&quot;:&quot;vertical&quot;,&quot;curved&quot;:0,&quot;rounded&quot;:0};size=40;" vertex="1" parent="1">
          <mxGeometry x="160" y="40" width="100" height="360" as="geometry" />
        </mxCell>
        <mxCell id="aM9ryv3xv72pqoxQDRHE-7" value="1. CadastrarProducao()" style="html=1;verticalAlign=bottom;endArrow=block;edgeStyle=elbowEdgeStyle;elbow=vertical;curved=0;rounded=0;" edge="1" parent="1" source="aM9ryv3xv72pqoxQDRHE-2" target="N8mo-txCpx4olIX8RqTg-14">
          <mxGeometry x="-0.439" relative="1" as="geometry">
            <mxPoint x="195" y="130" as="sourcePoint" />
            <Array as="points">
              <mxPoint x="180" y="120" />
            </Array>
            <mxPoint x="490" y="120" as="targetPoint" />
            <mxPoint as="offset" />
          </mxGeometry>
        </mxCell>
        <mxCell id="aM9ryv3xv72pqoxQDRHE-8" value="" style="html=1;verticalAlign=bottom;endArrow=open;dashed=1;endSize=8;edgeStyle=elbowEdgeStyle;elbow=vertical;curved=0;rounded=0;" edge="1" parent="1" target="aM9ryv3xv72pqoxQDRHE-1">
          <mxGeometry x="0.1074" relative="1" as="geometry">
            <mxPoint x="195" y="205" as="targetPoint" />
            <Array as="points">
              <mxPoint x="300" y="130" />
              <mxPoint x="190" y="140" />
            </Array>
            <mxPoint x="500" y="130" as="sourcePoint" />
            <mxPoint as="offset" />
          </mxGeometry>
        </mxCell>
        <mxCell id="N8mo-txCpx4olIX8RqTg-3" value="FuncionÃ¡rio" style="shape=umlLifeline;perimeter=lifelinePerimeter;whiteSpace=wrap;html=1;container=0;dropTarget=0;collapsible=0;recursiveResize=0;outlineConnect=0;portConstraint=eastwest;newEdgeStyle={&quot;edgeStyle&quot;:&quot;elbowEdgeStyle&quot;,&quot;elbow&quot;:&quot;vertical&quot;,&quot;curved&quot;:0,&quot;rounded&quot;:0};" vertex="1" parent="1">
          <mxGeometry x="280" y="40" width="100" height="360" as="geometry" />
        </mxCell>
        <mxCell id="N8mo-txCpx4olIX8RqTg-4" value="" style="html=1;points=[];perimeter=orthogonalPerimeter;outlineConnect=0;targetShapes=umlLifeline;portConstraint=eastwest;newEdgeStyle={&quot;edgeStyle&quot;:&quot;elbowEdgeStyle&quot;,&quot;elbow&quot;:&quot;vertical&quot;,&quot;curved&quot;:0,&quot;rounded&quot;:0};" vertex="1" parent="N8mo-txCpx4olIX8RqTg-3">
          <mxGeometry x="40" y="80" height="170" as="geometry" />
        </mxCell>
        <mxCell id="aM9ryv3xv72pqoxQDRHE-6" value="" style="html=1;points=[];perimeter=orthogonalPerimeter;outlineConnect=0;targetShapes=umlLifeline;portConstraint=eastwest;newEdgeStyle={&quot;edgeStyle&quot;:&quot;elbowEdgeStyle&quot;,&quot;elbow&quot;:&quot;vertical&quot;,&quot;curved&quot;:0,&quot;rounded&quot;:0};" vertex="1" parent="1">
          <mxGeometry x="290" y="120" height="170" as="geometry" />
        </mxCell>
        <mxCell id="N8mo-txCpx4olIX8RqTg-14" value="Software" style="shape=umlLifeline;perimeter=lifelinePerimeter;whiteSpace=wrap;html=1;container=0;dropTarget=0;collapsible=0;recursiveResize=0;outlineConnect=0;portConstraint=eastwest;newEdgeStyle={&quot;edgeStyle&quot;:&quot;elbowEdgeStyle&quot;,&quot;elbow&quot;:&quot;vertical&quot;,&quot;curved&quot;:0,&quot;rounded&quot;:0};" vertex="1" parent="1">
          <mxGeometry x="460" y="40" width="100" height="360" as="geometry" />
        </mxCell>
        <mxCell id="N8mo-txCpx4olIX8RqTg-15" value="" style="html=1;points=[];perimeter=orthogonalPerimeter;outlineConnect=0;targetShapes=umlLifeline;portConstraint=eastwest;newEdgeStyle={&quot;edgeStyle&quot;:&quot;elbowEdgeStyle&quot;,&quot;elbow&quot;:&quot;vertical&quot;,&quot;curved&quot;:0,&quot;rounded&quot;:0};" vertex="1" parent="N8mo-txCpx4olIX8RqTg-14">
          <mxGeometry x="45" y="70" width="10" height="290" as="geometry" />
        </mxCell>
        <mxCell id="N8mo-txCpx4olIX8RqTg-17" value="" style="html=1;points=[];perimeter=orthogonalPerimeter;outlineConnect=0;targetShapes=umlLifeline;portConstraint=eastwest;newEdgeStyle={&quot;edgeStyle&quot;:&quot;elbowEdgeStyle&quot;,&quot;elbow&quot;:&quot;vertical&quot;,&quot;curved&quot;:0,&quot;rounded&quot;:0};" vertex="1" parent="N8mo-txCpx4olIX8RqTg-14">
          <mxGeometry x="50" y="120" height="80" as="geometry" />
        </mxCell>
        <mxCell id="N8mo-txCpx4olIX8RqTg-24" value="2. ConsultarProducao()" style="html=1;verticalAlign=bottom;endArrow=block;edgeStyle=elbowEdgeStyle;elbow=vertical;curved=0;rounded=0;" edge="1" parent="1" source="aM9ryv3xv72pqoxQDRHE-2" target="N8mo-txCpx4olIX8RqTg-14">
          <mxGeometry x="-0.4458" relative="1" as="geometry">
            <mxPoint x="120" y="160" as="sourcePoint" />
            <Array as="points">
              <mxPoint x="300" y="160" />
            </Array>
            <mxPoint x="490" y="160" as="targetPoint" />
            <mxPoint as="offset" />
          </mxGeometry>
        </mxCell>
        <mxCell id="N8mo-txCpx4olIX8RqTg-25" value="" style="html=1;verticalAlign=bottom;endArrow=open;dashed=1;endSize=8;edgeStyle=elbowEdgeStyle;elbow=vertical;curved=0;rounded=0;" edge="1" parent="1" target="aM9ryv3xv72pqoxQDRHE-1">
          <mxGeometry x="0.1074" relative="1" as="geometry">
            <mxPoint x="100" y="170" as="targetPoint" />
            <Array as="points">
              <mxPoint x="290" y="170" />
              <mxPoint x="200" y="180" />
            </Array>
            <mxPoint x="500" y="170" as="sourcePoint" />
            <mxPoint as="offset" />
          </mxGeometry>
        </mxCell>
        <mxCell id="N8mo-txCpx4olIX8RqTg-26" value="3. EditarProducao()" style="html=1;verticalAlign=bottom;endArrow=block;edgeStyle=elbowEdgeStyle;elbow=vertical;curved=0;rounded=0;" edge="1" parent="1" source="aM9ryv3xv72pqoxQDRHE-2" target="N8mo-txCpx4olIX8RqTg-17">
          <mxGeometry x="-0.439" relative="1" as="geometry">
            <mxPoint x="110" y="200" as="sourcePoint" />
            <Array as="points">
              <mxPoint x="180" y="200" />
            </Array>
            <mxPoint x="500" y="200" as="targetPoint" />
            <mxPoint as="offset" />
          </mxGeometry>
        </mxCell>
        <mxCell id="N8mo-txCpx4olIX8RqTg-27" value="" style="html=1;verticalAlign=bottom;endArrow=open;dashed=1;endSize=8;edgeStyle=elbowEdgeStyle;elbow=vertical;curved=0;rounded=0;" edge="1" parent="1" target="aM9ryv3xv72pqoxQDRHE-4">
          <mxGeometry x="0.1074" relative="1" as="geometry">
            <mxPoint x="100" y="200" as="targetPoint" />
            <Array as="points">
              <mxPoint x="300" y="210" />
              <mxPoint x="205" y="150" />
            </Array>
            <mxPoint x="500" y="210" as="sourcePoint" />
            <mxPoint as="offset" />
          </mxGeometry>
        </mxCell>
        <mxCell id="N8mo-txCpx4olIX8RqTg-28" value="4. ExcluirProducao()" style="html=1;verticalAlign=bottom;endArrow=block;edgeStyle=elbowEdgeStyle;elbow=vertical;curved=0;rounded=0;" edge="1" parent="1" source="aM9ryv3xv72pqoxQDRHE-2" target="N8mo-txCpx4olIX8RqTg-17">
          <mxGeometry x="-0.439" relative="1" as="geometry">
            <mxPoint x="100" y="240" as="sourcePoint" />
            <Array as="points">
              <mxPoint x="180" y="240" />
            </Array>
            <mxPoint x="515" y="180" as="targetPoint" />
            <mxPoint as="offset" />
          </mxGeometry>
        </mxCell>
        <mxCell id="N8mo-txCpx4olIX8RqTg-29" value="" style="html=1;verticalAlign=bottom;endArrow=open;dashed=1;endSize=8;edgeStyle=elbowEdgeStyle;elbow=vertical;curved=0;rounded=0;" edge="1" parent="1" target="aM9ryv3xv72pqoxQDRHE-1">
          <mxGeometry x="0.1074" relative="1" as="geometry">
            <mxPoint x="110" y="250" as="targetPoint" />
            <Array as="points">
              <mxPoint x="300" y="250" />
              <mxPoint x="200" y="190" />
            </Array>
            <mxPoint x="500" y="250" as="sourcePoint" />
            <mxPoint as="offset" />
          </mxGeometry>
        </mxCell>
        <mxCell id="N8mo-txCpx4olIX8RqTg-31" value="5. ConsultarProducao()" style="html=1;verticalAlign=bottom;endArrow=block;edgeStyle=elbowEdgeStyle;elbow=vertical;curved=0;rounded=0;" edge="1" parent="1" source="aM9ryv3xv72pqoxQDRHE-5" target="N8mo-txCpx4olIX8RqTg-14">
          <mxGeometry x="-0.1862" relative="1" as="geometry">
            <mxPoint x="110" y="170" as="sourcePoint" />
            <Array as="points">
              <mxPoint x="280" y="280" />
            </Array>
            <mxPoint x="490" y="280" as="targetPoint" />
            <mxPoint as="offset" />
          </mxGeometry>
        </mxCell>
        <mxCell id="N8mo-txCpx4olIX8RqTg-32" value="" style="html=1;verticalAlign=bottom;endArrow=open;dashed=1;endSize=8;edgeStyle=elbowEdgeStyle;elbow=vertical;curved=0;rounded=0;" edge="1" parent="1" target="aM9ryv3xv72pqoxQDRHE-5">
          <mxGeometry x="0.1074" relative="1" as="geometry">
            <mxPoint x="105" y="140" as="targetPoint" />
            <Array as="points">
              <mxPoint x="500" y="290" />
              <mxPoint x="200" y="150" />
            </Array>
            <mxPoint x="500" y="290" as="sourcePoint" />
            <mxPoint as="offset" />
          </mxGeometry>
        </mxCell>
        <mxCell id="N8mo-txCpx4olIX8RqTg-33" value="6. SolicitarExcluisaoProducao()" style="html=1;verticalAlign=bottom;endArrow=block;edgeStyle=elbowEdgeStyle;elbow=vertical;curved=0;rounded=0;" edge="1" parent="1" source="aM9ryv3xv72pqoxQDRHE-5" target="N8mo-txCpx4olIX8RqTg-14">
          <mxGeometry x="-0.1862" relative="1" as="geometry">
            <mxPoint x="90" y="310" as="sourcePoint" />
            <Array as="points">
              <mxPoint x="340" y="320" />
              <mxPoint x="350" y="310" />
            </Array>
            <mxPoint x="490" y="310" as="targetPoint" />
            <mxPoint as="offset" />
          </mxGeometry>
        </mxCell>
        <mxCell id="N8mo-txCpx4olIX8RqTg-34" value="7. ConsultarProducao()" style="html=1;verticalAlign=bottom;endArrow=block;edgeStyle=elbowEdgeStyle;elbow=vertical;curved=0;rounded=0;" edge="1" parent="1" source="N8mo-txCpx4olIX8RqTg-3" target="N8mo-txCpx4olIX8RqTg-14">
          <mxGeometry x="0.029" relative="1" as="geometry">
            <mxPoint x="410" y="330" as="sourcePoint" />
            <Array as="points">
              <mxPoint x="450" y="360" />
              <mxPoint x="430" y="350" />
              <mxPoint x="420" y="360" />
            </Array>
            <mxPoint x="480" y="350" as="targetPoint" />
            <mxPoint as="offset" />
          </mxGeometry>
        </mxCell>
        <mxCell id="N8mo-txCpx4olIX8RqTg-35" value="" style="html=1;verticalAlign=bottom;endArrow=open;dashed=1;endSize=8;edgeStyle=elbowEdgeStyle;elbow=vertical;curved=0;rounded=0;" edge="1" parent="1">
          <mxGeometry x="0.1074" relative="1" as="geometry">
            <mxPoint x="210" y="330" as="targetPoint" />
            <Array as="points">
              <mxPoint x="500" y="330" />
              <mxPoint x="200" y="190" />
            </Array>
            <mxPoint x="500" y="330" as="sourcePoint" />
            <mxPoint as="offset" />
          </mxGeometry>
        </mxCell>
        <mxCell id="N8mo-txCpx4olIX8RqTg-36" value="" style="html=1;verticalAlign=bottom;endArrow=open;dashed=1;endSize=8;edgeStyle=elbowEdgeStyle;elbow=horizontal;curved=0;rounded=0;" edge="1" parent="1">
          <mxGeometry x="0.1074" relative="1" as="geometry">
            <mxPoint x="329.92857142857133" y="370" as="targetPoint" />
            <Array as="points">
              <mxPoint x="420" y="370" />
              <mxPoint x="213" y="230" />
            </Array>
            <mxPoint x="500" y="370" as="sourcePoint" />
            <mxPoint as="offset" />
          </mxGeometry>
        </mxCell>
      </root>
    </mxGraphModel>
  </diagram>
</mxfile>
